<svg width="138" height="127" viewBox="0 0 138 127" fill="none" xmlns="http://www.w3.org/2000/svg">
<circle cx="61" cy="66" r="61" fill="#003554"/>
<circle cx="105" cy="33" r="33" fill="#003554"/>
<path d="M56.7421 72H53.0171C52.7004 72 52.4671 71.9333 52.3171 71.8C52.1838 71.65 52.1171 71.4167 52.1171 71.1V54.9C52.1171 54.5833 52.1838 54.3583 52.3171 54.225C52.4671 54.075 52.7004 54 53.0171 54H57.0421C57.3088 54 57.5254 54.0583 57.6921 54.175C57.8754 54.2917 58.0421 54.4833 58.1921 54.75L60.4421 58.825C60.5254 58.975 60.5921 59.0833 60.6421 59.15C60.7088 59.2167 60.7921 59.25 60.8921 59.25H61.1171C61.2171 59.25 61.2921 59.2167 61.3421 59.15C61.4088 59.0833 61.4838 58.975 61.5671 58.825L63.7921 54.75C63.9421 54.4833 64.1004 54.2917 64.2671 54.175C64.4504 54.0583 64.6754 54 64.9421 54H68.9921C69.3088 54 69.5338 54.075 69.6671 54.225C69.8171 54.3583 69.8921 54.5833 69.8921 54.9V71.1C69.8921 71.4167 69.8171 71.65 69.6671 71.8C69.5338 71.9333 69.3088 72 68.9921 72H65.1421C64.8254 72 64.5921 71.9333 64.4421 71.8C64.3088 71.65 64.2421 71.4167 64.2421 71.1V62.3L62.7671 65.025C62.6171 65.3083 62.4338 65.5167 62.2171 65.65C62.0171 65.7667 61.7588 65.825 61.4421 65.825H60.4421C60.1254 65.825 59.8588 65.7667 59.6421 65.65C59.4421 65.5167 59.2671 65.3083 59.1171 65.025L57.6421 62.3V71.1C57.6421 71.4167 57.5671 71.65 57.4171 71.8C57.2838 71.9333 57.0588 72 56.7421 72Z" fill="#006494"/>
</svg>
